# xmcd
#
# Track frame offsets:
#	150
#	9844
#	19998
#	30773
#	42992
#	53763
#	66115
#	78019
#	90557
#	99459
#
# Disc length: 1480 seconds
#
# Revision: 1
# Processed by: cddbd v1.5.2PL0 Copyright (c) Steve Scherf et al.
# Submitted via: audiograbber 1.83.01
#
DISCID=6305c60a
DTITLE=Johnny Paycheck - Loving You Beats All I've Ever Seen
DYEAR=1975
DGENRE=Country
TTITLE0=Loving You Beats All I've Ever Seen
TTITLE1=Don't Take My Sunshine Away
TTITLE2=If You Were A Place
TTITLE3=Ain't She Something Else
TTITLE4=Rhythm Guitar
TTITLE5=I Don't Love Her Anymore
TTITLE6=My Lovin' Time With You
TTITLE7=The Most Beautiful Girl
TTITLE8=Loving You Is All I Thought It Would Be
TTITLE9=The Touch Of The Master's Hand
EXTD=
EXTT0=
EXTT1=
EXTT2=
EXTT3=
EXTT4=
EXTT5=
EXTT6=
EXTT7=
EXTT8=
EXTT9=
PLAYORDER=
